<?xml version="1.0" encoding="UTF-8" standalone="no"?>
<!-- Created with Inkscape (http://www.inkscape.org/) -->

<svg
   version="1.1"
   id="svg85"
   width="2000"
   height="2000"
   viewBox="0 0 2000 2000"
   sodipodi:docname="pacebi.svg"
   inkscape:version="1.1.2 (0a00cf5339, 2022-02-04)"
   xmlns:inkscape="http://www.inkscape.org/namespaces/inkscape"
   xmlns:sodipodi="http://sodipodi.sourceforge.net/DTD/sodipodi-0.dtd"
   xmlns="http://www.w3.org/2000/svg"
   xmlns:svg="http://www.w3.org/2000/svg">
  <defs
     id="defs89" />
  <sodipodi:namedview
     id="namedview87"
     pagecolor="#ffffff"
     bordercolor="#cccccc"
     borderopacity="1"
     inkscape:pageshadow="0"
     inkscape:pageopacity="1"
     inkscape:pagecheckerboard="0"
     showgrid="false"
     showguides="false"
     inkscape:zoom="0.35355339"
     inkscape:cx="1344.9171"
     inkscape:cy="1076.2165"
     inkscape:window-width="1920"
     inkscape:window-height="1019"
     inkscape:window-x="1920"
     inkscape:window-y="0"
     inkscape:window-maximized="1"
     inkscape:current-layer="g91" />
  <g
     inkscape:groupmode="layer"
     inkscape:label="Image"
     id="g91">
    <rect
       style="fill:#ff1b8d;fill-opacity:1;stroke-width:1.18818"
       id="rect197"
       width="461.53845"
       height="666.66669"
       x="0"
       y="0" />
    <rect
       style="fill:#ffdb00;fill-opacity:1;stroke-width:1.18818"
       id="rect2463"
       width="461.53845"
       height="666.66669"
       x="0"
       y="666.66687" />
    <rect
       style="fill:#1bb3ff;fill-opacity:1;stroke-width:1.18818"
       id="rect4105"
       width="461.53845"
       height="666.66669"
       x="0"
       y="1333.3334" />
    <rect
       style="fill:#000000;fill-opacity:1;stroke-width:0.840168"
       id="rect4928"
       width="307.69232"
       height="499.99997"
       x="461.53857"
       y="0" />
    <rect
       style="fill:#959595;fill-opacity:1;stroke-width:0.840168"
       id="rect6453"
       width="307.69232"
       height="499.99997"
       x="461.53857"
       y="500.00009" />
    <rect
       style="fill:#ffffff;fill-opacity:1;stroke-width:0.840168"
       id="rect8056"
       width="307.69232"
       height="499.99997"
       x="461.53857"
       y="999.99988" />
    <rect
       style="fill:#650065;fill-opacity:1;stroke-width:0.840168"
       id="rect9074"
       width="307.69232"
       height="499.99997"
       x="461.53857"
       y="1500.0001" />
    <rect
       style="fill:#fff9f0;fill-opacity:1;stroke-width:2.05797"
       id="rect9782"
       width="461.53845"
       height="2000"
       x="769.2312"
       y="0.00012207031" />
    <rect
       style="fill:#000000;fill-opacity:1;stroke-width:0.840168"
       id="rect10332"
       width="307.69232"
       height="499.99997"
       x="1230.7695"
       y="0" />
    <rect
       style="fill:#959595;fill-opacity:1;stroke-width:0.840168"
       id="rect10334"
       width="307.69232"
       height="499.99997"
       x="1230.7695"
       y="500.00009" />
    <rect
       style="fill:#ffffff;fill-opacity:1;stroke-width:0.840168"
       id="rect10336"
       width="307.69232"
       height="499.99997"
       x="1230.7695"
       y="999.99988" />
    <rect
       style="fill:#650065;fill-opacity:1;stroke-width:0.840168"
       id="rect10338"
       width="307.69232"
       height="499.99997"
       x="1230.7695"
       y="1500.0001" />
    <rect
       style="fill:#d80071;fill-opacity:1;stroke-width:1.3016"
       id="rect10340"
       width="461.53845"
       height="800"
       x="1538.4617"
       y="0.00012207031" />
    <rect
       style="fill:#744e95;fill-opacity:1;stroke-width:0.920365"
       id="rect11600"
       width="461.53845"
       height="400"
       x="1538.4617"
       y="800.00012" />
    <rect
       style="fill:#0035a9;fill-opacity:1;stroke-width:1.3016"
       id="rect12774"
       width="461.53845"
       height="800"
       x="1538.4617"
       y="1200.0001" />
    <path
       style="fill:#be80ce;fill-opacity:1;stroke:#000000;stroke-width:94.8566px;stroke-linecap:butt;stroke-linejoin:miter;stroke-opacity:0"
       d="m 769.23099,522.7297 v 326.66656 l 230.76921,123.3334 230.7692,-123.3334 V 522.7297 L 999.61569,642.73026 Z"
       id="path79866"
       sodipodi:nodetypes="ccccccc" />
    <path
       style="fill:#69486e;fill-opacity:1;stroke:#000000;stroke-width:94.8566px;stroke-linecap:butt;stroke-linejoin:miter;stroke-opacity:0"
       d="m 769.23099,1029.1865 v 326.6638 l 230.76921,123.3329 230.7692,-123.3329 v -326.6638 l -231.15371,119.9998 z"
       id="path82947"
       sodipodi:nodetypes="ccccccc" />
    <path
       style="fill:#060000;stroke:#000000;stroke-width:1px;stroke-linecap:butt;stroke-linejoin:miter;stroke-opacity:0;fill-opacity:1;opacity:0.8"
       d="m 7.6289502,742.95673 c 0,0 500.6607298,-54.53999 300.3619298,86.69952 103.25959,-20.78266 306.96319,-45.06959 232.2948,147.63726 191.11952,-96.97512 168.02315,-49.37303 149.58123,60.46809 67.23198,-89.68269 147.42427,-112.97507 202.55559,-116.02245 0,0 -133.62228,72.65332 -178.91143,202.43515 -31.75132,90.9875 26.31616,238.2926 206.63194,271.1302 33.28576,4.6914 64.4579,0.8545 64.4579,0.8545 90.04719,-12.082 205.65949,-101.7454 176.32969,-243.8144 0,0 20.6725,-7.3305 25.2704,-10.3837 -25.5032,-60.2777 -79.7361,-93.1978 -79.7361,-93.1978 0,0 19.9365,52.5277 23.6159,125.405 0,0 9.4793,-9.9412 16.9444,-12.9159 5.8686,72.281 -44.175,175.7942 -177.35402,178.5681 -133.17905,2.7738 -155.04399,-100.5728 -154.35488,-127.9251 0.48449,-19.2306 9.3604,-37.8972 26.63976,-57.1823 17.13646,-19.1256 50.19847,-33.6785 134.75964,-71.1957 92.7102,-41.1327 120.5268,-131.1311 125.6042,-159.27516 87.1582,2.07229 174.5735,62.78928 210.3226,119.41336 -17.2701,-105.94937 -42.0988,-164.05406 152.1337,-58.14455 -64.0864,-153.46748 40.0743,-186.17408 233.186,-150.96306 -141.8517,-94.062 40.5197,-109.59257 294.0532,-86.56869 -458.3291,-158.04476 -711.9875,-144.87916 -837.8326,-123.11381 136.1857,48.10127 72.407,211.31167 -52.1317,231.50086 -21.658,-106.77187 -92.1207,-112.67818 -91.2096,-158.69855 48.5194,27.90352 59.2889,-16.3461 115.3653,-3.62585 8.1554,1.65735 14.4824,-3.9144 14.4824,-3.9144 l 7.774,8.43015 c 0.2779,-69.04251 -92.2791,-55.76379 -108.2862,-75.41091 0,0 -6.4371,0.22032 -9.3105,-0.92292 -3.0918,-1.23015 -7.4212,-4.88708 -7.4212,-4.88708 0,0 -11.6229,-1.1224 -17.1001,-3.70163 -24.98549,-1.90811 -56.49773,-9.66334 -56.49773,-9.66334 0,0 -51.81457,-0.42912 -57.04971,-0.0993 -5.23514,0.3298 -7.99355,2.42576 -7.99355,2.42576 0,0 48.48832,10.04716 55.70683,16.70668 -19.76781,0.23752 -54.91084,8.54735 -63.73181,16.20669 0,0 28.4813,-6.7512 49.6291,-5.43221 0,0 -0.21985,2.3734 0.0864,4.36014 0,0 -33.51368,7.82556 -49.91407,31.44299 0,0 25.45701,-13.68274 41.59663,-13.195 0,0 0.36531,1.27853 0.67335,2.06087 -13.67498,8.78533 -35.59196,25.46388 -43.83062,38.86074 16.13227,-7.88591 30.52431,-16.5727 43.24596,-18.70077 0.40431,2.65496 0.39381,7.17778 0.39381,7.17778 -10.61939,11.39875 -26.16607,28.61595 -27.20826,35.43361 11.11999,-7.99571 18.80787,-12.64426 25.54506,-15.73485 14.21245,60.53463 105.53391,86.19318 44.74401,155.8073 C 751.20281,849.44652 720.32308,650.73592 850.75511,621.86516 509.33425,556.90027 7.6289502,742.95673 7.6289502,742.95673 Z"
       id="path86845"
       sodipodi:nodetypes="cccccscccccccssssccccccccccccscccscccccccccccccccc" />
  </g>
</svg>
